<svg version="1.1" xmlns="http://www.w3.org/2000/svg" viewBox="0 0 1647.141020341443 2301.8379623781534" width="1647.141020341443" height="2301.8379623781534" filter="invert(93%) hue-rotate(180deg)">
  <!-- svg-source:excalidraw -->
  
  <defs>
    <style class="style-fonts">
      @font-face {
        font-family: "Virgil";
        src: url("https://excalidraw.com/Virgil.woff2");
      }
      @font-face {
        font-family: "Cascadia";
        src: url("https://excalidraw.com/Cascadia.woff2");
      }
    </style>
    
  </defs>
  <rect x="0" y="0" width="1647.141020341443" height="2301.8379623781534" fill="#ffffff"></rect><g stroke-linecap="round" transform="translate(584.5496118082355 210.85287682215403) rotate(0 203.5 105.5)"><path d="M255 26.5 M255 26.5 C290.32 46.21, 323 63.53, 356 79.5 M255 26.5 C289.79 44.28, 324.64 61.95, 356 79.5 M356 79.5 C406.65 107.28, 405.91 104.91, 356 132.5 M356 79.5 C408.75 104.32, 406.43 105.42, 356 132.5 M356 132.5 C333.37 143.42, 313.19 154.7, 255 184.5 M356 132.5 C319.8 150.04, 280.57 170.58, 255 184.5 M255 184.5 C205.9 209.96, 203.98 212.36, 153 184.5 M255 184.5 C203.07 213.26, 205.85 211.33, 153 184.5 M153 184.5 C114.36 164.97, 73.45 144.57, 51 132.5 M153 184.5 C115.66 166, 79.96 146.79, 51 132.5 M51 132.5 C-0.86 104.83, 0.67 104.32, 51 79.5 M51 132.5 C2.18 104.69, -1.63 105.4, 51 79.5 M51 79.5 C80.61 60.9, 112.97 48.41, 153 26.5 M51 79.5 C76.28 67.76, 100.49 54.07, 153 26.5 M153 26.5 C204.61 0.52, 203.4 -1.27, 255 26.5 M153 26.5 C203.71 2.2, 204.98 2.2, 255 26.5" stroke="#1e1e1e" stroke-width="2" fill="none"></path></g><g transform="translate(737.701589347298 294.10287682215403) rotate(0 50.5980224609375 22.5)"><text x="50.5980224609375" y="0" font-family="Virgil, Segoe UI Emoji" font-size="36px" fill="#1e1e1e" text-anchor="middle" style="white-space: pre;" direction="ltr" dominant-baseline="text-before-edge">CYArt</text></g><g stroke-linecap="round" transform="translate(322.8829451415688 378.1862101554874) rotate(0 103.5 28)"><path d="M14 0 M14 0 C55.07 -2.34, 96.51 -1.45, 193 0 M14 0 C52.89 0.86, 94.14 0.48, 193 0 M193 0 C203.8 -1.95, 206.22 6.47, 207 14 M193 0 C200.63 -2.08, 205.42 2.98, 207 14 M207 14 C207.64 18.88, 208.36 27.48, 207 42 M207 14 C207.44 23.1, 208.01 30.34, 207 42 M207 42 C205.58 51.18, 201.86 57.89, 193 56 M207 42 C208.38 49.09, 202.1 55.96, 193 56 M193 56 C129.71 54.48, 69.28 54.07, 14 56 M193 56 C139.57 55.33, 86.88 56.54, 14 56 M14 56 C4.66 54.71, -1.55 52.66, 0 42 M14 56 C4.33 55.67, 0.24 50.83, 0 42 M0 42 C-0.32 31.25, -0.09 18.32, 0 14 M0 42 C-0.77 36, -0.02 30.5, 0 14 M0 14 C1.02 5.65, 4.01 -0.57, 14 0 M0 14 C-0.15 4.75, 5.38 -1.93, 14 0" stroke="#1e1e1e" stroke-width="2" fill="none"></path></g><g transform="translate(400.94296558834617 393.6862101554874) rotate(0 25.439979553222656 12.5)"><text x="25.439979553222656" y="0" font-family="Virgil, Segoe UI Emoji" font-size="20px" fill="#1e1e1e" text-anchor="middle" style="white-space: pre;" direction="ltr" dominant-baseline="text-before-edge">Admin</text></g><g stroke-linecap="round" transform="translate(299.2162784749021 545.8528768221539) rotate(0 106 27)"><path d="M13.5 0 M13.5 0 C76.65 0.18, 140.24 1, 198.5 0 M13.5 0 C81.5 -1.57, 149.98 0.24, 198.5 0 M198.5 0 C207.29 0.42, 212.57 5.74, 212 13.5 M198.5 0 C207.38 -2.02, 211.26 6.27, 212 13.5 M212 13.5 C213.82 19.11, 212.46 27.79, 212 40.5 M212 13.5 C212.36 20.16, 212.65 26.64, 212 40.5 M212 40.5 C212.13 50.23, 207.74 55.44, 198.5 54 M212 40.5 C210.7 50.02, 209.12 52.08, 198.5 54 M198.5 54 C151.94 53.55, 109.56 54.46, 13.5 54 M198.5 54 C124.13 53.24, 51.21 54.46, 13.5 54 M13.5 54 C3.06 52.84, -0.97 50.23, 0 40.5 M13.5 54 C2.22 52.22, 0.43 47.57, 0 40.5 M0 40.5 C1.18 28.22, -0.16 18.35, 0 13.5 M0 40.5 C0.26 30.93, 0 20.37, 0 13.5 M0 13.5 C-0.57 2.89, 2.72 0.3, 13.5 0 M0 13.5 C-2.2 6.12, 5.72 -1.05, 13.5 0" stroke="#1e1e1e" stroke-width="2" fill="none"></path></g><g transform="translate(374.15631143388646 560.3528768221539) rotate(0 31.059967041015625 12.5)"><text x="31.059967041015625" y="0" font-family="Virgil, Segoe UI Emoji" font-size="20px" fill="#1e1e1e" text-anchor="middle" style="white-space: pre;" direction="ltr" dominant-baseline="text-before-edge">clients</text></g><g stroke-linecap="round" transform="translate(27.54961180823551 473.85287682215437) rotate(0 93.33333333333331 30.833333333333258)"><path d="M15.42 0 M15.42 0 C57.21 1.1, 99.48 -0.64, 171.25 0 M15.42 0 C55.69 1.09, 95.53 0.8, 171.25 0 M171.25 0 C181.55 -0.35, 185.84 3.97, 186.67 15.42 M171.25 0 C181.88 0.16, 186.83 4.9, 186.67 15.42 M186.67 15.42 C188.18 25.28, 188.41 36.32, 186.67 46.25 M186.67 15.42 C186.59 25.63, 186.62 37.72, 186.67 46.25 M186.67 46.25 C184.85 55.77, 181.49 62.76, 171.25 61.67 M186.67 46.25 C186.34 56.35, 182.52 59.73, 171.25 61.67 M171.25 61.67 C111.54 61.54, 51.87 58.66, 15.42 61.67 M171.25 61.67 C127.16 63.56, 84.39 63.7, 15.42 61.67 M15.42 61.67 C5.36 60.76, 0.2 56.53, 0 46.25 M15.42 61.67 C5.5 63.42, 2.25 55.11, 0 46.25 M0 46.25 C-0.59 34.61, -0.2 22.41, 0 15.42 M0 46.25 C-0.62 33.99, 0.67 21.77, 0 15.42 M0 15.42 C-1.81 7.07, 4.9 -0.51, 15.42 0 M0 15.42 C0.22 3.89, 5.37 -0.86, 15.42 0" stroke="#1e1e1e" stroke-width="2" fill="none"></path></g><g transform="translate(71.55299671627586 492.18621015548763) rotate(0 49.32994842529297 12.5)"><text x="49.32994842529297" y="0" font-family="Virgil, Segoe UI Emoji" font-size="20px" fill="#1e1e1e" text-anchor="middle" style="white-space: pre;" direction="ltr" dominant-baseline="text-before-edge">UserModel</text></g><g stroke-linecap="round"><g transform="translate(204.91263628248026 470.519543488821) rotate(0 55.09709012835955 -28.774527901810643)"><path d="M0.79 -0.42 C19.18 -9.68, 92.23 -46.03, 110.45 -55.13 M-0.26 -1.69 C18.07 -11.37, 91.77 -48.49, 110.11 -57.13" stroke="#1971c2" stroke-width="2" fill="none"></path></g><g transform="translate(204.91263628248026 470.519543488821) rotate(0 55.09709012835955 -28.774527901810643)"><path d="M88.62 -33.59 C96.02 -40.93, 102.58 -50.64, 110.06 -58.64 M89.09 -35.45 C95.82 -40.78, 100.11 -47.36, 109.54 -56.45" stroke="#1971c2" stroke-width="2" fill="none"></path></g><g transform="translate(204.91263628248026 470.519543488821) rotate(0 55.09709012835955 -28.774527901810643)"><path d="M79.58 -52.01 C89.83 -53.74, 99.18 -57.78, 110.06 -58.64 M80.06 -53.87 C89.34 -54.1, 96.14 -55.55, 109.54 -56.45" stroke="#1971c2" stroke-width="2" fill="none"></path></g></g><mask></mask><g stroke-linecap="round"><g transform="translate(220.8829451415687 534.7045979867348) rotate(0 33.94791420760251 14.00476958785572)"><path d="M-0.51 -0.66 C10.86 3.86, 56.76 22.48, 68.4 27.41 M1.43 1.61 C12.62 6.26, 56.21 24.42, 67.49 28.67" stroke="#1971c2" stroke-width="2" fill="none"></path></g><g transform="translate(220.8829451415687 534.7045979867348) rotate(0 33.94791420760251 14.00476958785572)"><path d="M36.41 27.86 C46.13 29.85, 58.2 26.84, 69.17 26.68 M37.9 27.86 C44.78 26.93, 51.99 28.54, 67.54 28.24" stroke="#1971c2" stroke-width="2" fill="none"></path></g><g transform="translate(220.8829451415687 534.7045979867348) rotate(0 33.94791420760251 14.00476958785572)"><path d="M44.02 8.8 C51.37 16.81, 61.03 19.85, 69.17 26.68 M45.51 8.8 C50.7 12.32, 56.14 18.37, 67.54 28.24" stroke="#1971c2" stroke-width="2" fill="none"></path></g></g><mask></mask><g stroke-linecap="round"><g transform="translate(419.14274998466317 443.8528768221539) rotate(0 0.9694321313482988 47.21929332530743)"><path d="M1.17 1.09 C1.49 16.34, 1.67 77.26, 1.6 92.65 M0.32 0.62 C0.59 16.52, 1.21 78.13, 1.15 93.82" stroke="#1971c2" stroke-width="2" fill="none"></path></g><g transform="translate(419.14274998466317 443.8528768221539) rotate(0 0.9694321313482988 47.21929332530743)"><path d="M-7.41 67.28 C-7.24 73.44, -3.09 81.26, 2.6 94.54 M-8.78 64.73 C-6.36 72.99, -4.26 78.98, 1.16 92.94" stroke="#1971c2" stroke-width="2" fill="none"></path></g><g transform="translate(419.14274998466317 443.8528768221539) rotate(0 0.9694321313482988 47.21929332530743)"><path d="M13.11 67.19 C7.63 73.58, 6.14 81.42, 2.6 94.54 M11.74 64.64 C9.13 72.82, 6.21 78.82, 1.16 92.94" stroke="#1971c2" stroke-width="2" fill="none"></path></g></g><mask></mask><g stroke-linecap="round"><g transform="translate(537.5496118082353 580.5195434888207) rotate(0 41.15230618142215 21.728770960333406)"><path d="M0.4 0.83 C14.44 8.07, 69.45 35.21, 83.15 42.26 M-0.85 0.22 C13.11 7.67, 67.77 35.88, 82.11 43.23" stroke="#e03131" stroke-width="2" fill="none"></path></g><g transform="translate(537.5496118082353 580.5195434888207) rotate(0 41.15230618142215 21.728770960333406)"><path d="M53.73 39.14 C56.76 38.97, 64.47 42.71, 82.54 42.84 M53.28 39.2 C59.85 40.86, 65.52 40.9, 83.01 43.46" stroke="#e03131" stroke-width="2" fill="none"></path></g><g transform="translate(537.5496118082353 580.5195434888207) rotate(0 41.15230618142215 21.728770960333406)"><path d="M63.13 20.9 C64.01 24.58, 69.75 32.15, 82.54 42.84 M62.68 20.95 C67.15 26.71, 70.74 30.8, 83.01 43.46" stroke="#e03131" stroke-width="2" fill="none"></path></g></g><mask></mask><g stroke-linecap="round" transform="translate(637.5496118082353 623.8528768221539) rotate(0 154.16666666666663 38.333333333333314)"><path d="M19.17 0 M19.17 0 C107.92 0.43, 199.54 0.97, 289.17 0 M19.17 0 C117.48 1.96, 216.35 1.04, 289.17 0 M289.17 0 C303.69 -0.68, 307.51 6.19, 308.33 19.17 M289.17 0 C303.08 2.19, 306.48 4.74, 308.33 19.17 M308.33 19.17 C306.5 29.53, 307.46 39.62, 308.33 57.5 M308.33 19.17 C308.6 31.49, 308.75 44.55, 308.33 57.5 M308.33 57.5 C308.11 70.04, 303.86 77.06, 289.17 76.67 M308.33 57.5 C308.95 68.12, 300.99 77.59, 289.17 76.67 M289.17 76.67 C226.46 74.73, 163.78 73.56, 19.17 76.67 M289.17 76.67 C212.36 77.28, 135.77 77.12, 19.17 76.67 M19.17 76.67 C8.23 76.59, -0.16 69.3, 0 57.5 M19.17 76.67 C4.8 77.74, -0.32 72.2, 0 57.5 M0 57.5 C-0.3 43.58, -1.34 31.73, 0 19.17 M0 57.5 C-0.97 44.09, -0.86 29.55, 0 19.17 M0 19.17 C-0.09 5.89, 8.3 1.9, 19.17 0 M0 19.17 C2 5.76, 4.86 -0.36, 19.17 0" stroke="#1e1e1e" stroke-width="2" fill="none"></path></g><g transform="translate(725.3663562947262 649.6862101554873) rotate(0 66.34992218017578 12.5)"><text x="66.34992218017578" y="0" font-family="Virgil, Segoe UI Emoji" font-size="20px" fill="#1e1e1e" text-anchor="middle" style="white-space: pre;" direction="ltr" dominant-baseline="text-before-edge">Shopping Cart</text></g><g stroke-linecap="round" transform="translate(1064.2162784749019 452.1862101554873) rotate(0 159.16666666666657 38.333333333333314)"><path d="M19.17 0 M19.17 0 C102.46 -1.62, 184.22 -0.64, 299.17 0 M19.17 0 C120.86 0.51, 221.63 0.43, 299.17 0 M299.17 0 C310.47 -0.15, 319.25 7.56, 318.33 19.17 M299.17 0 C311.24 1.02, 319.32 8, 318.33 19.17 M318.33 19.17 C318.36 31.84, 316.35 45.91, 318.33 57.5 M318.33 19.17 C317.85 27.05, 318.49 35.75, 318.33 57.5 M318.33 57.5 C318.13 68.56, 311.71 75.95, 299.17 76.67 M318.33 57.5 C317.55 72.36, 312.63 74.7, 299.17 76.67 M299.17 76.67 C218.15 75.39, 140.79 77.32, 19.17 76.67 M299.17 76.67 C240.05 75.2, 180.52 75.29, 19.17 76.67 M19.17 76.67 C6.99 76.46, 0.94 69.13, 0 57.5 M19.17 76.67 C6.61 75.72, 1.6 70.84, 0 57.5 M0 57.5 C0.11 44.39, 2.12 31.39, 0 19.17 M0 57.5 C-1.07 50.11, 0.71 40.85, 0 19.17 M0 19.17 C0.3 5.69, 7.04 -0.58, 19.17 0 M0 19.17 C-0.42 8.17, 7.39 0.04, 19.17 0" stroke="#1e1e1e" stroke-width="2" fill="none"></path></g><g transform="translate(1184.8929854247717 478.01954348882055) rotate(0 38.489959716796875 12.5)"><text x="38.489959716796875" y="0" font-family="Virgil, Segoe UI Emoji" font-size="20px" fill="#1e1e1e" text-anchor="middle" style="white-space: pre;" direction="ltr" dominant-baseline="text-before-edge">Product</text></g><g stroke-linecap="round"><g transform="translate(1097.8752902612578 538.852876822154) rotate(0 -69.53880963211213 44.54474441245367)"><path d="M-0.35 -0.9 C-23.85 13.84, -116.76 73.94, -139.98 88.9 M1.67 1.25 C-22.05 16.07, -117.12 75.24, -140.75 89.98" stroke="#e03131" stroke-width="2" fill="none"></path></g><g transform="translate(1097.8752902612578 538.852876822154) rotate(0 -69.53880963211213 44.54474441245367)"><path d="M-123.74 66.94 C-130.74 76.49, -137.96 83.5, -142.49 89.73 M-123.2 67.04 C-126.97 70.49, -130.4 75.02, -141.33 90.95" stroke="#e03131" stroke-width="2" fill="none"></path></g><g transform="translate(1097.8752902612578 538.852876822154) rotate(0 -69.53880963211213 44.54474441245367)"><path d="M-112.89 84.36 C-124.14 87.15, -135.55 87.44, -142.49 89.73 M-112.35 84.46 C-118.33 84.22, -123.99 85.14, -141.33 90.95" stroke="#e03131" stroke-width="2" fill="none"></path></g></g><mask></mask><g stroke-linecap="round"><g transform="translate(792.5496118082353 713.852876822154) rotate(0 0.8511127525320035 72.94499220626733)"><path d="M-0.83 -0.37 C-0.36 24.33, 1.95 122.91, 2.53 147.49 M0.93 -1.6 C1.35 22.81, 1.79 121.37, 2.04 145.8" stroke="#e03131" stroke-width="2" fill="none"></path></g><g transform="translate(792.5496118082353 713.852876822154) rotate(0 0.8511127525320035 72.94499220626733)"><path d="M-9.03 119.13 C-4.32 127.19, -2.09 131.86, 1.64 144.69 M-7.54 118.59 C-4.96 127.94, 0.55 138.3, 1.94 146.16" stroke="#e03131" stroke-width="2" fill="none"></path></g><g transform="translate(792.5496118082353 713.852876822154) rotate(0 0.8511127525320035 72.94499220626733)"><path d="M11.49 118.99 C10.55 126.94, 7.14 131.65, 1.64 144.69 M12.98 118.45 C7.77 127.94, 5.5 138.36, 1.94 146.16" stroke="#e03131" stroke-width="2" fill="none"></path></g></g><mask></mask><g stroke-linecap="round" transform="translate(630.8829451415687 870.5195434888205) rotate(0 171.66666666666657 43.33333333333337)"><path d="M21.67 0 M21.67 0 C83.41 0.66, 147.65 0.23, 321.67 0 M21.67 0 C106.48 -1.42, 190.78 -0.77, 321.67 0 M321.67 0 C336.41 -1.88, 344.74 8.2, 343.33 21.67 M321.67 0 C336.86 0.87, 344.12 6.46, 343.33 21.67 M343.33 21.67 C341.66 32.93, 345.08 45.84, 343.33 65 M343.33 21.67 C343.2 31.85, 342.73 41.81, 343.33 65 M343.33 65 C344.99 81.11, 334.78 87.68, 321.67 86.67 M343.33 65 C343.58 79.67, 335.04 85.81, 321.67 86.67 M321.67 86.67 C245.82 86.31, 170.27 86.59, 21.67 86.67 M321.67 86.67 C244.36 85.83, 166.26 85.15, 21.67 86.67 M21.67 86.67 C7.06 87.6, 1.73 80.06, 0 65 M21.67 86.67 C7.8 88.02, 0.42 80.03, 0 65 M0 65 C1.75 55.79, -0.99 45.62, 0 21.67 M0 65 C0.94 55.99, 0.15 46.05, 0 21.67 M0 21.67 C1.78 7.26, 8.47 0.19, 21.67 0 M0 21.67 C0.4 6.04, 4.96 2.07, 21.67 0" stroke="#1e1e1e" stroke-width="2" fill="none"></path></g><g transform="translate(725.7096993936844 901.3528768221539) rotate(0 76.83991241455078 12.5)"><text x="76.83991241455078" y="0" font-family="Virgil, Segoe UI Emoji" font-size="20px" fill="#1e1e1e" text-anchor="middle" style="white-space: pre;" direction="ltr" dominant-baseline="text-before-edge">Billing // inVoice</text></g><g stroke-linecap="round" transform="translate(1052.5496118082353 310.51954348882066) rotate(0 160.00000000000006 34.166666666666686)"><path d="M17.08 0 M17.08 0 C128.46 -0.26, 238.45 -1.64, 302.92 0 M17.08 0 C79.23 -2.02, 141.02 -2.09, 302.92 0 M302.92 0 C313.85 -0.21, 321.69 7.04, 320 17.08 M302.92 0 C314.42 0.93, 322.05 5.74, 320 17.08 M320 17.08 C319 27.51, 321.83 40.08, 320 51.25 M320 17.08 C319.61 25.24, 319.5 33.22, 320 51.25 M320 51.25 C320.74 62.2, 314.3 70.2, 302.92 68.33 M320 51.25 C318.29 64.74, 316.11 69.82, 302.92 68.33 M302.92 68.33 C191.45 69.17, 78.26 70.6, 17.08 68.33 M302.92 68.33 C209.08 67.62, 115.1 67.46, 17.08 68.33 M17.08 68.33 C4.35 68.56, 1.68 61.87, 0 51.25 M17.08 68.33 C3.77 66.47, 1.63 61.78, 0 51.25 M0 51.25 C-0.83 38.25, 1.26 27.97, 0 17.08 M0 51.25 C-0.09 41.07, -0.2 32.18, 0 17.08 M0 17.08 C-1.37 7.13, 4.66 0.27, 17.08 0 M0 17.08 C-1.11 4.61, 4.02 0.89, 17.08 0" stroke="#1e1e1e" stroke-width="2" fill="none"></path></g><g transform="translate(1141.9333169473957 327.1862101554873) rotate(0 70.61629486083984 17.5)"><text x="70.61629486083984" y="0" font-family="Virgil, Segoe UI Emoji" font-size="28px" fill="#1e1e1e" text-anchor="middle" style="white-space: pre;" direction="ltr" dominant-baseline="text-before-edge">Collection?</text></g><g stroke-linecap="round" transform="translate(565.8829451415687 457.1862101554873) rotate(0 90.83333333333331 25)"><path d="M12.5 0 M12.5 0 C68.13 1.79, 121.34 1.3, 169.17 0 M12.5 0 C72.64 1.11, 132.26 1.37, 169.17 0 M169.17 0 C176.46 0.27, 180.7 3.22, 181.67 12.5 M169.17 0 C175.83 0.89, 179.96 2.95, 181.67 12.5 M181.67 12.5 C182.18 18.19, 179.84 24.45, 181.67 37.5 M181.67 12.5 C182.04 21.29, 181.66 30.91, 181.67 37.5 M181.67 37.5 C182.04 45.65, 178.79 50.59, 169.17 50 M181.67 37.5 C179.55 44.79, 175.36 48.83, 169.17 50 M169.17 50 C127.2 50.03, 84.31 50.49, 12.5 50 M169.17 50 C106.81 50.44, 45.15 49.97, 12.5 50 M12.5 50 C5.93 50.73, -0.14 47.81, 0 37.5 M12.5 50 C4.62 52.14, 2.23 48.03, 0 37.5 M0 37.5 C-1.31 28.44, -1.43 21.64, 0 12.5 M0 37.5 C0.47 28.22, -0.5 19.07, 0 12.5 M0 12.5 C-0.83 4.21, 2.7 0.51, 12.5 0 M0 12.5 C1.38 5.6, 4.75 -0.82, 12.5 0" stroke="#1e1e1e" stroke-width="2" fill="none"></path></g><g transform="translate(610.2563327961911 469.6862101554873) rotate(0 46.45994567871091 12.5)"><text x="46.45994567871094" y="0" font-family="Virgil, Segoe UI Emoji" font-size="20px" fill="#1e1e1e" text-anchor="middle" style="white-space: pre;" direction="ltr" dominant-baseline="text-before-edge">Employee?</text></g><g stroke-linecap="round"><g transform="translate(535.8829451415687 402.1862101554873) rotate(0 28.129597091854862 20.37739629771562)"><path d="M0.43 0.7 C10.04 7.34, 47.65 32.96, 57.07 39.47 M-0.81 0.03 C8.73 6.85, 46.82 33.91, 56.33 40.73" stroke="#1971c2" stroke-width="2" fill="none"></path></g><g transform="translate(535.8829451415687 402.1862101554873) rotate(0 28.129597091854862 20.37739629771562)"><path d="M28.59 33.39 C33.72 35.04, 41.39 38.48, 55.5 41.15 M27.06 33.59 C34.52 34.69, 41.85 36.82, 57.27 41.7" stroke="#1971c2" stroke-width="2" fill="none"></path></g><g transform="translate(535.8829451415687 402.1862101554873) rotate(0 28.129597091854862 20.37739629771562)"><path d="M40.51 16.68 C42.62 22.54, 47.32 30.14, 55.5 41.15 M38.98 16.89 C43.68 21.79, 48.25 27.8, 57.27 41.7" stroke="#1971c2" stroke-width="2" fill="none"></path></g></g><mask></mask><g stroke-linecap="round"><g transform="translate(1230.8829451415686 390.51954348882066) rotate(0 -2.836500650914445 28.465094442286784)"><path d="M0.04 0.52 C-0.62 9.71, -3.99 46.53, -4.85 55.99 M-1.39 -0.25 C-2.13 9.01, -4.96 47.93, -5.72 57.18" stroke="#1e1e1e" stroke-width="2" fill="none"></path></g><g transform="translate(1230.8829451415686 390.51954348882066) rotate(0 -2.836500650914445 28.465094442286784)"><path d="M-12.5 30.04 C-12.54 35.85, -8.65 40.44, -4.79 58.32 M-13.78 29.85 C-9.94 40.7, -7.68 50.94, -5.04 57.5" stroke="#1e1e1e" stroke-width="2" fill="none"></path></g><g transform="translate(1230.8829451415686 390.51954348882066) rotate(0 -2.836500650914445 28.465094442286784)"><path d="M6.9 31.52 C2.4 37.01, 1.84 41.25, -4.79 58.32 M5.62 31.34 C2.14 41.46, -2.93 51.14, -5.04 57.5" stroke="#1e1e1e" stroke-width="2" fill="none"></path></g></g><mask></mask><g stroke-linecap="round"><g transform="translate(394.2162784749021 610.5195434888207) rotate(0 115.09184627874438 125.85838793949534)"><path d="M1.13 0.52 C38.89 42.22, 189.87 208.98, 227.6 250.86 M0.26 -0.26 C38.32 41.52, 191.64 209.73, 229.92 251.98" stroke="#e03131" stroke-width="2" fill="none"></path></g><g transform="translate(394.2162784749021 610.5195434888207) rotate(0 115.09184627874438 125.85838793949534)"><path d="M204.23 236.79 C212.34 241.77, 224.19 246.72, 228.52 251.94 M204.21 238.01 C213.34 243.19, 223.86 248.4, 230.89 252.77" stroke="#e03131" stroke-width="2" fill="none"></path></g><g transform="translate(394.2162784749021 610.5195434888207) rotate(0 115.09184627874438 125.85838793949534)"><path d="M219.41 222.99 C221.74 233.43, 227.74 243.71, 228.52 251.94 M219.39 224.21 C222.91 234.68, 227.75 245.07, 230.89 252.77" stroke="#e03131" stroke-width="2" fill="none"></path></g></g><mask></mask><g stroke-linecap="round"><g transform="translate(322.54961180823534 609.5701177914939) rotate(0 -50.328526770491095 75.14318096302446)"><path d="M-0.84 -0.59 C-17.44 24.43, -83.79 125.89, -100.42 150.88 M0.93 1.71 C-15.81 26.35, -84.48 124.46, -101.58 149.22" stroke="#e03131" stroke-width="2" fill="none"></path></g><g transform="translate(322.54961180823534 609.5701177914939) rotate(0 -50.328526770491095 75.14318096302446)"><path d="M-94.89 119.52 C-94.07 125.98, -98.49 131.89, -103.52 148.3 M-93.89 119.83 C-95.25 129.57, -99.23 137.57, -100.89 148.47" stroke="#e03131" stroke-width="2" fill="none"></path></g><g transform="translate(322.54961180823534 609.5701177914939) rotate(0 -50.328526770491095 75.14318096302446)"><path d="M-78.05 131.24 C-81.26 134.82, -89.65 137.98, -103.52 148.3 M-77.05 131.55 C-83.27 138.05, -92.1 142.68, -100.89 148.47" stroke="#e03131" stroke-width="2" fill="none"></path></g></g><mask></mask><g stroke-linecap="round" transform="translate(19.216278474902026 772.9034511248271) rotate(0 200.8333333333333 50)"><path d="M25 0 M25 0 C119.69 -0.89, 211.65 -0.34, 376.67 0 M25 0 C148.01 1.59, 271.33 0.69, 376.67 0 M376.67 0 C393.94 1.77, 403.08 7.18, 401.67 25 M376.67 0 C395.44 0.81, 399.97 6.75, 401.67 25 M401.67 25 C402.02 37.34, 400.04 49.64, 401.67 75 M401.67 25 C401.96 42.9, 401.02 62.71, 401.67 75 M401.67 75 C401.83 93.2, 393.38 100.92, 376.67 100 M401.67 75 C402.66 91.14, 393.27 101.48, 376.67 100 M376.67 100 C282.61 102.48, 187.19 101.14, 25 100 M376.67 100 C253.74 100.99, 130.62 101.36, 25 100 M25 100 C7.16 98.35, 1.82 90.65, 0 75 M25 100 C7.4 100.31, 0.33 92.08, 0 75 M0 75 C-1.11 60.83, 1.79 50.49, 0 25 M0 75 C0.51 56.76, 0.31 40.11, 0 25 M0 25 C-0.54 9.47, 7.72 1.19, 25 0 M0 25 C1.98 6.97, 9.65 -2.14, 25 0" stroke="#1e1e1e" stroke-width="2" fill="none"></path></g><g transform="translate(73.49699950354781 805.4034511248271) rotate(0 146.5526123046875 17.5)"><text x="146.5526123046875" y="0" font-family="Virgil, Segoe UI Emoji" font-size="28px" fill="#1e1e1e" text-anchor="middle" style="white-space: pre;" direction="ltr" dominant-baseline="text-before-edge">profile &amp; contac info.</text></g><g stroke-linecap="round" transform="translate(202.54961180823534 10) rotate(0 579.9999999999998 69.16666666666663)"><path d="M32 0 M32 0 C292.2 -0.3, 553.36 0.02, 1128 0 M32 0 C347.53 -3.58, 663.77 -3.12, 1128 0 M1128 0 C1149.07 -1.79, 1159.24 11.06, 1160 32 M1128 0 C1148.67 -2.21, 1158.5 9.87, 1160 32 M1160 32 C1159 53, 1158.13 76.51, 1160 106.33 M1160 32 C1158.63 52.96, 1159.14 72.91, 1160 106.33 M1160 106.33 C1158.17 128.75, 1150.8 139.81, 1128 138.33 M1160 106.33 C1162.03 127.73, 1151.61 140.18, 1128 138.33 M1128 138.33 C871.36 137.74, 614.07 136.46, 32 138.33 M1128 138.33 C786.8 140.12, 445.1 140.08, 32 138.33 M32 138.33 C11.32 137.61, 0.47 126.1, 0 106.33 M32 138.33 C9.76 139.83, 2.21 126.2, 0 106.33 M0 106.33 C1.42 90.96, 1.44 74.85, 0 32 M0 106.33 C-0.47 84.75, 0.76 64.04, 0 32 M0 32 C0.2 10.08, 12.04 -0.73, 32 0 M0 32 C1.76 10.23, 10.15 0.8, 32 0" stroke="#e03131" stroke-width="2" fill="none"></path></g><g transform="translate(580.8829451415686 59.99999999999977) rotate(0 250.30810546875 22.5)"><text x="0" y="0" font-family="Virgil, Segoe UI Emoji" font-size="36px" fill="#e03131" text-anchor="start" style="white-space: pre;" direction="ltr" dominant-baseline="text-before-edge">RUBY ON RAILS PROPOSAL</text></g><g stroke-linecap="round"><g transform="translate(10.882945141568769 1062.3999953269956) rotate(0 778.216028599565 -2.116803720220922)"><path d="M-0.88 0.96 C258.83 0.22, 1297.68 -4.01, 1557.32 -5.19 M0.85 0.41 C260.55 -0.06, 1297.46 -2.78, 1556.71 -3.75" stroke="#1e1e1e" stroke-width="2" fill="none"></path></g></g><mask></mask><g transform="translate(698.2638975225211 1142.3999953269956) rotate(0 40.212013244628906 22.5)"><text x="0" y="0" font-family="Virgil, Segoe UI Emoji" font-size="36px" fill="#1e1e1e" text-anchor="start" style="white-space: pre;" direction="ltr" dominant-baseline="text-before-edge">User</text></g><g transform="translate(358.2638975225211 1162.3999953269956) rotate(0 77.1963119506836 140)"><text x="0" y="0" font-family="Virgil, Segoe UI Emoji" font-size="28px" fill="#1e1e1e" text-anchor="start" style="white-space: pre;" direction="ltr" dominant-baseline="text-before-edge">id</text><text x="0" y="35" font-family="Virgil, Segoe UI Emoji" font-size="28px" fill="#1e1e1e" text-anchor="start" style="white-space: pre;" direction="ltr" dominant-baseline="text-before-edge">Name</text><text x="0" y="70" font-family="Virgil, Segoe UI Emoji" font-size="28px" fill="#1e1e1e" text-anchor="start" style="white-space: pre;" direction="ltr" dominant-baseline="text-before-edge">Last_name</text><text x="0" y="105" font-family="Virgil, Segoe UI Emoji" font-size="28px" fill="#1e1e1e" text-anchor="start" style="white-space: pre;" direction="ltr" dominant-baseline="text-before-edge">role</text><text x="0" y="140" font-family="Virgil, Segoe UI Emoji" font-size="28px" fill="#1e1e1e" text-anchor="start" style="white-space: pre;" direction="ltr" dominant-baseline="text-before-edge">level</text><text x="0" y="175" font-family="Virgil, Segoe UI Emoji" font-size="28px" fill="#1e1e1e" text-anchor="start" style="white-space: pre;" direction="ltr" dominant-baseline="text-before-edge">email</text><text x="0" y="210" font-family="Virgil, Segoe UI Emoji" font-size="28px" fill="#1e1e1e" text-anchor="start" style="white-space: pre;" direction="ltr" dominant-baseline="text-before-edge">password</text><text x="0" y="245" font-family="Virgil, Segoe UI Emoji" font-size="28px" fill="#1e1e1e" text-anchor="start" style="white-space: pre;" direction="ltr" dominant-baseline="text-before-edge"></text></g><g stroke-linecap="round" transform="translate(316.59723085585483 1124.0666619936621) rotate(0 455.8333333333332 179.99999999999997)"><path d="M32 0 M32 0 C332.31 3.4, 634.66 3.11, 879.67 0 M32 0 C318.42 1.9, 604.23 1.93, 879.67 0 M879.67 0 C902.07 1.56, 912.67 12.38, 911.67 32 M879.67 0 C901.85 1.7, 912.64 12.48, 911.67 32 M911.67 32 C912.97 112.44, 914.05 194.87, 911.67 328 M911.67 32 C909.66 105.98, 909.66 180.81, 911.67 328 M911.67 328 C910.58 350.46, 900.21 358.44, 879.67 360 M911.67 328 C912.05 349.21, 901.56 360.98, 879.67 360 M879.67 360 C649.98 361.12, 419.92 359.84, 32 360 M879.67 360 C636.04 356.91, 391.8 356.24, 32 360 M32 360 C11.92 358.78, 0.42 347.64, 0 328 M32 360 C12.87 357.83, -1.32 349.26, 0 328 M0 328 C-2.13 240.14, 0.41 153.89, 0 32 M0 328 C1.65 219.47, 1.58 111.95, 0 32 M0 32 C1.54 9.05, 12 1.95, 32 0 M0 32 C2.1 10.86, 8.85 -1.41, 32 0" stroke="#1e1e1e" stroke-width="2" fill="none"></path></g><g stroke-linecap="round"><g transform="translate(736.5972308558547 1222.3999953269956) rotate(0 -0.4711940156047376 122.16883583964776)"><path d="M-1.06 -0.32 C-1.25 40.55, -0.93 204.88, -0.95 245.87 M0.59 -1.54 C0.28 38.95, -1.14 203.35, -1.53 244.21" stroke="#1e1e1e" stroke-width="2" fill="none"></path></g></g><mask></mask><g transform="translate(926.5972308558548 1162.3999953269956) rotate(0 63.61625671386719 17.5)"><text x="0" y="0" font-family="Virgil, Segoe UI Emoji" font-size="28px" fill="#1e1e1e" text-anchor="start" style="white-space: pre;" direction="ltr" dominant-baseline="text-before-edge">Callbacks</text></g><g transform="translate(806.5972308558547 1227.3999953269954) rotate(0 157.6826629638672 17.5)"><text x="0" y="0" font-family="Virgil, Segoe UI Emoji" font-size="28px" fill="#1e1e1e" text-anchor="start" style="white-space: pre;" direction="ltr" dominant-baseline="text-before-edge">After_create -&gt; mails.</text></g><g transform="translate(243.97818323680713 1566.68570961271) rotate(0 56.88001251220703 22.5)"><text x="0" y="0" font-family="Virgil, Segoe UI Emoji" font-size="36px" fill="#1e1e1e" text-anchor="start" style="white-space: pre;" direction="ltr" dominant-baseline="text-before-edge">Profile</text></g><g transform="translate(186.0416753002992 1623.1936461206465) rotate(0 77.78990936279297 75)"><text x="0" y="0" font-family="Virgil, Segoe UI Emoji" font-size="20px" fill="#1e1e1e" text-anchor="start" style="white-space: pre;" direction="ltr" dominant-baseline="text-before-edge">Client_id</text><text x="0" y="25" font-family="Virgil, Segoe UI Emoji" font-size="20px" fill="#1e1e1e" text-anchor="start" style="white-space: pre;" direction="ltr" dominant-baseline="text-before-edge">City</text><text x="0" y="50" font-family="Virgil, Segoe UI Emoji" font-size="20px" fill="#1e1e1e" text-anchor="start" style="white-space: pre;" direction="ltr" dominant-baseline="text-before-edge">State</text><text x="0" y="75" font-family="Virgil, Segoe UI Emoji" font-size="20px" fill="#1e1e1e" text-anchor="start" style="white-space: pre;" direction="ltr" dominant-baseline="text-before-edge">address</text><text x="0" y="100" font-family="Virgil, Segoe UI Emoji" font-size="20px" fill="#1e1e1e" text-anchor="start" style="white-space: pre;" direction="ltr" dominant-baseline="text-before-edge">postal_address</text><text x="0" y="125" font-family="Virgil, Segoe UI Emoji" font-size="20px" fill="#1e1e1e" text-anchor="start" style="white-space: pre;" direction="ltr" dominant-baseline="text-before-edge">Phone</text></g><g stroke-linecap="round" transform="translate(137.31151657014055 1552.3999953269956) rotate(0 161.42857142857142 116.42857142857133)"><path d="M32 0 M32 0 C88.64 2.11, 144.79 0.56, 290.86 0 M32 0 C107.71 0, 184.05 1.41, 290.86 0 M290.86 0 C314.15 -0.53, 321.66 11.42, 322.86 32 M290.86 0 C311.92 2.03, 323.76 11.1, 322.86 32 M322.86 32 C321.83 96.31, 323.13 163.87, 322.86 200.86 M322.86 32 C322.16 98.61, 322.72 164.16, 322.86 200.86 M322.86 200.86 C322.95 223.18, 310.76 233.22, 290.86 232.86 M322.86 200.86 C324.02 221.9, 311.7 230.6, 290.86 232.86 M290.86 232.86 C220.53 233.5, 151.13 231.68, 32 232.86 M290.86 232.86 C225.04 234.65, 158 235.4, 32 232.86 M32 232.86 C8.9 231.47, -0.09 222.35, 0 200.86 M32 232.86 C10.92 232.41, 1.42 220.08, 0 200.86 M0 200.86 C2.46 140.1, 2.85 81.5, 0 32 M0 200.86 C-1.9 163.29, -0.15 125.58, 0 32 M0 32 C-0.67 11.8, 10.31 0.58, 32 0 M0 32 C0.74 12.77, 12.95 -0.32, 32 0" stroke="#1e1e1e" stroke-width="2" fill="none"></path></g><g stroke-linecap="round" transform="translate(594.4543737129976 1549.5428524698527) rotate(0 190 112.85714285714283)"><path d="M32 0 M32 0 C156.85 -0.1, 281.82 0.01, 348 0 M32 0 C123.27 -0.54, 212.92 -0.38, 348 0 M348 0 C370.22 1.7, 378.58 12.62, 380 32 M348 0 C368.24 1.56, 377.85 11.8, 380 32 M380 32 C377.76 70.17, 378.03 111.59, 380 193.71 M380 32 C379.27 95.04, 379.47 159.52, 380 193.71 M380 193.71 C378.51 216.17, 369.25 225.24, 348 225.71 M380 193.71 C378.85 214.32, 367.3 224.89, 348 225.71 M348 225.71 C277.41 228.46, 209.82 227.16, 32 225.71 M348 225.71 C239.06 223.67, 129.36 224.64, 32 225.71 M32 225.71 C11.56 225.02, 1.19 213.76, 0 193.71 M32 225.71 C12.6 225.26, -0.91 216.78, 0 193.71 M0 193.71 C1.41 131.01, -0.31 65.35, 0 32 M0 193.71 C-0.27 131.79, 0.85 68.36, 0 32 M0 32 C-0.71 10.24, 9.1 -1.51, 32 0 M0 32 C-1.72 9.71, 11.09 -0.8, 32 0" stroke="#1e1e1e" stroke-width="2" fill="none"></path></g><g transform="translate(667.3115165701403 1573.828566755567) rotate(0 119.43004608154297 22.5)"><text x="0" y="0" font-family="Virgil, Segoe UI Emoji" font-size="36px" fill="#1e1e1e" text-anchor="start" style="white-space: pre;" direction="ltr" dominant-baseline="text-before-edge">Shopping Cart</text></g><g transform="translate(637.3115165701405 1622.3999953269958) rotate(0 58.31993103027344 37.5)"><text x="0" y="0" font-family="Virgil, Segoe UI Emoji" font-size="20px" fill="#1e1e1e" text-anchor="start" style="white-space: pre;" direction="ltr" dominant-baseline="text-before-edge">client_id</text><text x="0" y="25" font-family="Virgil, Segoe UI Emoji" font-size="20px" fill="#1e1e1e" text-anchor="start" style="white-space: pre;" direction="ltr" dominant-baseline="text-before-edge">products=[]</text><text x="0" y="50" font-family="Virgil, Segoe UI Emoji" font-size="20px" fill="#1e1e1e" text-anchor="start" style="white-space: pre;" direction="ltr" dominant-baseline="text-before-edge"></text></g><g stroke-linecap="round"><g transform="translate(441.5972308558547 1498.1142810412814) rotate(0 -12.78031004856473 21.103115441877662)"><path d="M-0.96 -0.85 C-5.17 6.03, -21.41 34.63, -25.97 41.49 M0.74 1.31 C-3.47 8.39, -21.84 36.44, -26.3 43.06" stroke="#1e1e1e" stroke-width="2" fill="none"></path></g><g transform="translate(441.5972308558547 1498.1142810412814) rotate(0 -12.78031004856473 21.103115441877662)"><path d="M-21.95 20.94 C-21.77 22.85, -25.17 30.62, -24.33 44.59 M-20.16 19.43 C-22.84 23.4, -22.89 29.2, -26.64 43.47" stroke="#1e1e1e" stroke-width="2" fill="none"></path></g><g transform="translate(441.5972308558547 1498.1142810412814) rotate(0 -12.78031004856473 21.103115441877662)"><path d="M-7.82 30.28 C-11.07 29.82, -17.87 35.35, -24.33 44.59 M-6.03 28.77 C-11.82 30.58, -15.05 34.28, -26.64 43.47" stroke="#1e1e1e" stroke-width="2" fill="none"></path></g></g><mask></mask><g stroke-linecap="round"><g transform="translate(740.1686594272833 1496.68570961271) rotate(0 1.4414143068981957 23.37273961186139)"><path d="M-0.75 1.14 C-0.16 8.73, 3.17 38.56, 3.63 46.05 M1.06 0.7 C1.55 7.87, 2.52 36.9, 3.09 44.1" stroke="#1e1e1e" stroke-width="2" fill="none"></path></g><g transform="translate(740.1686594272833 1496.68570961271) rotate(0 1.4414143068981957 23.37273961186139)"><path d="M-3.98 24.33 C-2.47 28.24, 0.34 37.01, 3.29 44.79 M-5.65 23 C-4.18 28.41, -1.42 34.59, 3.22 43.76" stroke="#1e1e1e" stroke-width="2" fill="none"></path></g><g transform="translate(740.1686594272833 1496.68570961271) rotate(0 1.4414143068981957 23.37273961186139)"><path d="M11.66 23.49 C8.35 27.56, 6.33 36.59, 3.29 44.79 M10 22.16 C6.97 27.77, 5.24 34.2, 3.22 43.76" stroke="#1e1e1e" stroke-width="2" fill="none"></path></g></g><mask></mask><g stroke-linecap="round" transform="translate(1084.4543737129975 1563.8285667555672) rotate(0 198.57142857142856 138.57142857142856)"><path d="M32 0 M32 0 C156.34 -0.25, 280.17 0.36, 365.14 0 M32 0 C162.33 0.02, 292.48 0.04, 365.14 0 M365.14 0 C386.95 1.1, 397.56 9.32, 397.14 32 M365.14 0 C384.76 1.16, 395.44 11.99, 397.14 32 M397.14 32 C394.72 84.18, 396.1 135.56, 397.14 245.14 M397.14 32 C398.31 95.76, 398.72 159.59, 397.14 245.14 M397.14 245.14 C397.25 267.85, 386.63 276.67, 365.14 277.14 M397.14 245.14 C399.18 265.43, 388.06 277.97, 365.14 277.14 M365.14 277.14 C231.4 275.67, 100.42 277.22, 32 277.14 M365.14 277.14 C290.98 275.5, 217.23 275.19, 32 277.14 M32 277.14 C11.35 276.81, -1.19 265.97, 0 245.14 M32 277.14 C9.98 277.12, 0.95 267.77, 0 245.14 M0 245.14 C-2.73 158.9, -0.64 77.5, 0 32 M0 245.14 C-0.25 172.51, -0.24 98.99, 0 32 M0 32 C0.82 11.86, 11.91 1.56, 32 0 M0 32 C-1.23 9.57, 12.37 -1.54, 32 0" stroke="#1e1e1e" stroke-width="2" fill="none"></path></g><g transform="translate(1203.025802284426 1559.5428524698527) rotate(0 60.42601776123047 22.5)"><text x="0" y="0" font-family="Virgil, Segoe UI Emoji" font-size="36px" fill="#1e1e1e" text-anchor="start" style="white-space: pre;" direction="ltr" dominant-baseline="text-before-edge">Invoice</text></g><g transform="translate(1111.5972308558548 1626.68570961271) rotate(0 165.559814453125 62.5)"><text x="0" y="0" font-family="Virgil, Segoe UI Emoji" font-size="20px" fill="#1e1e1e" text-anchor="start" style="white-space: pre;" direction="ltr" dominant-baseline="text-before-edge">Productos=[]</text><text x="0" y="25" font-family="Virgil, Segoe UI Emoji" font-size="20px" fill="#1e1e1e" text-anchor="start" style="white-space: pre;" direction="ltr" dominant-baseline="text-before-edge">client_id</text><text x="0" y="50" font-family="Virgil, Segoe UI Emoji" font-size="20px" fill="#1e1e1e" text-anchor="start" style="white-space: pre;" direction="ltr" dominant-baseline="text-before-edge">amount : integer</text><text x="0" y="75" font-family="Virgil, Segoe UI Emoji" font-size="20px" fill="#1e1e1e" text-anchor="start" style="white-space: pre;" direction="ltr" dominant-baseline="text-before-edge">taxes</text><text x="0" y="100" font-family="Virgil, Segoe UI Emoji" font-size="20px" fill="#1e1e1e" text-anchor="start" style="white-space: pre;" direction="ltr" dominant-baseline="text-before-edge">status: pending || payed || declined</text></g><g stroke-linecap="round"><g transform="translate(987.3115165701405 1640.9714238984243) rotate(0 44.64022620750592 -0.39924482367933933)"><path d="M-0.07 0.2 C14.9 0.01, 75.96 -0.98, 90.85 -0.99 M-1.56 -0.75 C13.23 -0.83, 74.79 -0.36, 90.34 0.02" stroke="#1e1e1e" stroke-width="2" fill="none"></path></g><g transform="translate(987.3115165701405 1640.9714238984243) rotate(0 44.64022620750592 -0.39924482367933933)"><path d="M62.33 11.28 C71.31 4.84, 84.17 2.44, 92.13 0.87 M62.3 10.39 C72.06 6.72, 81.51 2.47, 91.04 0.07" stroke="#1e1e1e" stroke-width="2" fill="none"></path></g><g transform="translate(987.3115165701405 1640.9714238984243) rotate(0 44.64022620750592 -0.39924482367933933)"><path d="M62.63 -9.24 C71.52 -7.73, 84.26 -2.18, 92.13 0.87 M62.6 -10.13 C72.27 -7.07, 81.63 -4.6, 91.04 0.07" stroke="#1e1e1e" stroke-width="2" fill="none"></path></g></g><mask></mask><g stroke-linecap="round"><g transform="translate(1143.025802284426 1502.3999953269958) rotate(0 15.93709264659725 21.350540195990845)"><path d="M1.12 -0.82 C6.23 6.55, 26.55 36.06, 31.62 43.52 M0.25 1.36 C5.14 8.45, 25.67 34.94, 30.77 41.75" stroke="#1e1e1e" stroke-width="2" fill="none"></path></g><g transform="translate(1143.025802284426 1502.3999953269958) rotate(0 15.93709264659725 21.350540195990845)"><path d="M7.04 27.72 C17.94 32.85, 27.22 37.19, 31.63 39.83 M8.22 27.02 C15.67 30.93, 21.82 36.84, 31.77 40.87" stroke="#1e1e1e" stroke-width="2" fill="none"></path></g><g transform="translate(1143.025802284426 1502.3999953269958) rotate(0 15.93709264659725 21.350540195990845)"><path d="M21.5 16.7 C26.84 26.16, 30.61 34.7, 31.63 39.83 M22.68 16 C25.76 23.26, 27.48 32.54, 31.77 40.87" stroke="#1e1e1e" stroke-width="2" fill="none"></path></g></g><mask></mask><g stroke-linecap="round"><g transform="translate(94.45437371299766 1926.68570961271) rotate(0 729.8821667772903 -3.921201730679229)"><path d="M0.21 -0.37 C243.44 -1.43, 1215.69 -6.29, 1458.82 -7.47 M-1.14 -1.62 C242.49 -2.4, 1217.16 -5.32, 1460.91 -6.1" stroke="#1e1e1e" stroke-width="2" fill="none"></path></g></g><mask></mask><g transform="translate(737.3115165701405 1975.2571381841385) rotate(0 79.0560302734375 22.5)"><text x="0" y="0" font-family="Virgil, Segoe UI Emoji" font-size="36px" fill="#1e1e1e" text-anchor="start" style="white-space: pre;" direction="ltr" dominant-baseline="text-before-edge">Products</text></g><g transform="translate(503.0258022844262 2058.114281041281) rotate(0 158.9398345947266 74.99999999999994)"><text x="0" y="0" font-family="Virgil, Segoe UI Emoji" font-size="20px" fill="#1e1e1e" text-anchor="start" style="white-space: pre;" direction="ltr" dominant-baseline="text-before-edge">Name</text><text x="0" y="25" font-family="Virgil, Segoe UI Emoji" font-size="20px" fill="#1e1e1e" text-anchor="start" style="white-space: pre;" direction="ltr" dominant-baseline="text-before-edge">Description</text><text x="0" y="50" font-family="Virgil, Segoe UI Emoji" font-size="20px" fill="#1e1e1e" text-anchor="start" style="white-space: pre;" direction="ltr" dominant-baseline="text-before-edge">Collection_id or Collection_name</text><text x="0" y="75" font-family="Virgil, Segoe UI Emoji" font-size="20px" fill="#1e1e1e" text-anchor="start" style="white-space: pre;" direction="ltr" dominant-baseline="text-before-edge">Price</text><text x="0" y="100" font-family="Virgil, Segoe UI Emoji" font-size="20px" fill="#1e1e1e" text-anchor="start" style="white-space: pre;" direction="ltr" dominant-baseline="text-before-edge">Quantity?</text><text x="0" y="125" font-family="Virgil, Segoe UI Emoji" font-size="20px" fill="#1e1e1e" text-anchor="start" style="white-space: pre;" direction="ltr" dominant-baseline="text-before-edge"></text></g><g stroke-linecap="round" transform="translate(400.16865942728344 1962.3999953269956) rotate(0 446.42857142857144 126.42857142857144)"><path d="M32 0 M32 0 C354.54 -2.59, 675.98 -2.25, 860.86 0 M32 0 C353.22 2.82, 673.94 3.1, 860.86 0 M860.86 0 C880.63 -0.11, 893.49 9.02, 892.86 32 M860.86 0 C882.71 1.28, 894.2 12.9, 892.86 32 M892.86 32 C892.3 80.61, 889.84 126.34, 892.86 220.86 M892.86 32 C891.73 71.62, 892.5 113.64, 892.86 220.86 M892.86 220.86 C892.88 243.77, 881.66 252.34, 860.86 252.86 M892.86 220.86 C894.68 241.27, 881.67 253.78, 860.86 252.86 M860.86 252.86 C671.88 252.15, 480.95 251.19, 32 252.86 M860.86 252.86 C669.97 251.49, 479.54 251.91, 32 252.86 M32 252.86 C12.42 254.3, 0.01 240.56, 0 220.86 M32 252.86 C12.23 253.61, 0.67 244.46, 0 220.86 M0 220.86 C-3.32 148.31, 0.05 79.12, 0 32 M0 220.86 C0.1 176.91, -0.28 134.67, 0 32 M0 32 C-0.68 11.35, 10.66 -1.34, 32 0 M0 32 C-2.16 12.94, 10.42 -0.85, 32 0" stroke="#1e1e1e" stroke-width="2" fill="none"></path></g><g stroke-linecap="round"><g transform="translate(60.644849903473926 2292.1619000889004) rotate(0 787.4849974477663 -4.8970299147877085)"><path d="M-0.04 -0.32 C262.2 -1.65, 1311.56 -6.46, 1574.2 -7.69 M-1.53 -1.54 C261.04 -3.24, 1313.67 -8.12, 1576.5 -9.47" stroke="#1e1e1e" stroke-width="2" fill="none"></path></g></g><mask></mask></svg>